# Blender v2.93.0 OBJ File: 'magnet.blend'
# www.blender.org
mtllib magnet.mtl
o Plane
v 1.264049 0.000000 0.020490
v -1.264049 0.000000 0.020490
v 1.240983 0.000000 0.273085
v -1.240983 0.000000 0.273085
v 1.168287 0.000000 0.639795
v 1.002868 0.000000 0.978580
v 0.758484 0.000000 1.244561
v 0.467775 0.000000 1.417058
v 0.157445 0.000000 1.488209
v -0.157445 0.000000 1.488209
v -0.467775 0.000000 1.417058
v -0.758484 0.000000 1.244561
v -1.002868 0.000000 0.978580
v -1.168287 0.000000 0.639795
v 2.248351 0.000000 0.036445
v -2.248351 0.000000 0.036445
v 2.202413 0.000000 0.484653
v -2.202413 0.000000 0.484653
v 2.031723 0.000000 1.112643
v 1.707446 0.000000 1.666095
v 1.270793 0.000000 2.085184
v 0.776361 0.000000 2.351875
v 0.261015 0.000000 2.467178
v -0.261014 0.000000 2.467178
v -0.776361 0.000000 2.351875
v -1.270792 0.000000 2.085184
v -1.707446 0.000000 1.666095
v -2.031723 0.000000 1.112643
v 1.264048 0.000000 -3.632725
v -1.264049 0.000000 -3.632725
v 2.248351 0.000000 -3.616770
v -2.248352 0.000000 -3.616770
v 1.240983 1.152648 0.273085
v 1.168287 1.152648 0.639795
v 1.002868 1.152648 0.978580
v 0.758484 1.152648 1.244561
v 0.467775 1.152648 1.417058
v 0.157445 1.152648 1.488209
v -0.157445 1.152648 1.488209
v -0.467775 1.152648 1.417058
v -0.758484 1.152648 1.244561
v -1.002868 1.152648 0.978580
v -1.168287 1.152648 0.639795
v -1.240983 1.152648 0.273085
v 1.264049 1.152648 0.020490
v -1.264049 1.152648 0.020490
v 2.202413 1.152648 0.484653
v 2.031723 1.152648 1.112643
v 1.707446 1.152648 1.666095
v 1.270793 1.152648 2.085184
v 0.776361 1.152648 2.351875
v 0.261015 1.152648 2.467178
v -0.261014 1.152648 2.467178
v -0.776361 1.152648 2.351875
v -1.270792 1.152648 2.085184
v -1.707446 1.152648 1.666095
v -2.031723 1.152648 1.112643
v -2.202413 1.152648 0.484653
v 2.248351 1.152648 0.036445
v -2.248351 1.152648 0.036445
v 2.248351 1.152648 -3.616770
v 1.264048 1.152648 -3.632725
v -2.248352 1.152648 -3.616770
v -1.264049 1.152648 -3.632725
v 0.000000 0.000000 1.488209
v 0.000000 0.000000 2.467178
v 0.000000 1.152648 1.488209
v 0.000000 1.152648 2.467178
v 1.240983 0.000000 0.273085
v 1.168287 0.000000 0.639795
v 1.002868 0.000000 0.978580
v 0.758484 0.000000 1.244561
v 0.467775 0.000000 1.417058
v 0.157445 0.000000 1.488209
v 0.000000 0.000000 1.488209
v -0.157445 0.000000 1.488209
v -0.467775 0.000000 1.417058
v -0.758484 0.000000 1.244561
v -1.002868 0.000000 0.978580
v -1.168287 0.000000 0.639795
v -1.240983 0.000000 0.273085
v 1.264049 0.000000 0.020490
v -1.264049 0.000000 0.020490
v 2.202413 0.000000 0.484653
v 2.031723 0.000000 1.112643
v 1.707446 0.000000 1.666095
v 1.270793 0.000000 2.085184
v 0.776361 0.000000 2.351875
v 0.261015 0.000000 2.467178
v 0.000000 0.000000 2.467178
v -0.261014 0.000000 2.467178
v -0.776361 0.000000 2.351875
v -1.270792 0.000000 2.085184
v -1.707446 0.000000 1.666095
v -2.031723 0.000000 1.112643
v -2.202413 0.000000 0.484653
v 2.248351 0.000000 0.036445
v -2.248351 0.000000 0.036445
v 2.248351 0.000000 -3.616770
v 2.248351 0.000000 -3.616770
v 1.264048 0.000000 -3.632725
v 1.264048 0.000000 -3.632725
v -2.248352 0.000000 -3.616770
v -2.248352 0.000000 -3.616770
v -1.264049 0.000000 -3.632725
v -1.264049 0.000000 -3.632725
v 1.240983 1.152648 0.273085
v 1.168287 1.152648 0.639795
v 1.002868 1.152648 0.978580
v 0.758484 1.152648 1.244561
v 0.467775 1.152648 1.417058
v 0.157445 1.152648 1.488209
v 0.000000 1.152648 1.488209
v -0.157445 1.152648 1.488209
v -0.467775 1.152648 1.417058
v -0.758484 1.152648 1.244561
v -1.002868 1.152648 0.978580
v -1.168287 1.152648 0.639795
v -1.240983 1.152648 0.273085
v 1.264049 1.152648 0.020490
v -1.264049 1.152648 0.020490
v 2.202413 1.152648 0.484653
v 2.031723 1.152648 1.112643
v 1.707446 1.152648 1.666095
v 1.270793 1.152648 2.085184
v 0.776361 1.152648 2.351875
v 0.261015 1.152648 2.467178
v 0.000000 1.152648 2.467178
v -0.261014 1.152648 2.467178
v -0.776361 1.152648 2.351875
v -1.270792 1.152648 2.085184
v -1.707446 1.152648 1.666095
v -2.031723 1.152648 1.112643
v -2.202413 1.152648 0.484653
v 2.248351 1.152648 0.036445
v -2.248351 1.152648 0.036445
v 2.248351 1.152648 -3.616770
v 2.248351 1.152648 -3.616770
v 1.264048 1.152648 -3.632725
v 1.264048 1.152648 -3.632725
v -2.248352 1.152648 -3.616770
v -2.248352 1.152648 -3.616770
v -1.264049 1.152648 -3.632725
v -1.264049 1.152648 -3.632725
vt 0.481615 0.118725
vt 0.492829 0.109284
vt 0.441501 0.033345
vt 0.422910 0.048997
vt 0.452564 0.151844
vt 0.470401 0.128166
vt 0.404319 0.064649
vt 0.374527 0.103765
vt 0.442201 0.181563
vt 0.355303 0.152409
vt 0.615704 0.109097
vt 0.642872 0.130857
vt 0.698665 0.058134
vt 0.648849 0.023640
vt 0.440745 0.215163
vt 0.349332 0.208444
vt 0.583606 0.094886
vt 0.592563 0.003666
vt 0.449278 0.249213
vt 0.359424 0.267310
vt 0.550250 0.090596
vt 0.536331 0.000000
vt 0.466090 0.279691
vt 0.384924 0.322275
vt 0.519200 0.095742
vt 0.485121 0.010654
vt 0.091654 0.659861
vt 0.000000 0.658917
vt 0.004031 0.617160
vt 0.093663 0.636330
vt 0.479595 0.299066
vt 0.408530 0.356955
vt 0.627599 0.617160
vt 0.698665 0.559272
vt 0.093663 1.000000
vt 0.002009 0.999056
vt 0.132283 0.498435
vt 0.073577 0.568164
vt 0.092169 0.583816
vt 0.143497 0.507876
vt 0.103231 0.465317
vt 0.025194 0.513396
vt 0.054986 0.552512
vt 0.121068 0.488994
vt 0.092869 0.435597
vt 0.005970 0.464751
vt 0.266372 0.508063
vt 0.299516 0.593520
vt 0.349332 0.559026
vt 0.293540 0.486303
vt 0.091412 0.401998
vt 0.000000 0.408716
vt 0.234274 0.522274
vt 0.243231 0.613494
vt 0.099946 0.367948
vt 0.010091 0.349850
vt 0.200917 0.526564
vt 0.186998 0.617160
vt 0.116758 0.337469
vt 0.035592 0.294885
vt 0.169867 0.521418
vt 0.135789 0.606506
vt 0.185317 0.957299
vt 0.187325 0.980830
vt 0.097693 1.000000
vt 0.093663 0.958243
vt 0.130263 0.318094
vt 0.059197 0.260206
vt 0.349332 0.057889
vt 0.278267 0.000000
vt 0.095671 0.618104
vt 0.187325 0.617160
vt 0.294647 0.848242
vt 0.187325 0.848242
vt 0.187325 0.894348
vt 0.294647 0.894348
vt 0.401968 0.617160
vt 0.294647 0.617160
vt 0.294647 0.644182
vt 0.401968 0.644182
vt 0.187325 0.935114
vt 0.294647 0.935114
vt 0.913307 0.428861
vt 0.805986 0.428861
vt 0.805986 0.453224
vt 0.913307 0.453224
vt 0.805986 0.000000
vt 0.698665 0.000000
vt 0.698665 0.052051
vt 0.805986 0.052051
vt 0.913307 0.397591
vt 0.805986 0.397591
vt 0.698665 0.110791
vt 0.805986 0.110791
vt 0.913307 0.363571
vt 0.805986 0.363571
vt 0.805986 0.492684
vt 0.805986 0.534335
vt 0.698665 0.534335
vt 0.698665 0.492684
vt 0.913307 0.793317
vt 0.913307 0.816870
vt 0.805986 0.816870
vt 0.805986 0.793317
vt 0.698665 0.152591
vt 0.805986 0.152591
vt 0.913307 0.340093
vt 0.805986 0.340093
vt 0.509289 0.617160
vt 0.401968 0.617160
vt 0.401968 0.675900
vt 0.509289 0.675900
vt 0.600940 0.617160
vt 0.692590 0.617160
vt 0.692590 0.724482
vt 0.600940 0.724481
vt 0.564922 0.724482
vt 0.564922 0.831803
vt 0.598942 0.831803
vt 0.598942 0.724482
vt 0.401968 0.727951
vt 0.509289 0.727951
vt 0.509289 0.617160
vt 0.509289 0.724481
vt 0.600940 0.724482
vt 0.600940 0.617160
vt 0.533652 0.724482
vt 0.533652 0.831803
vt 0.294647 0.617160
vt 0.187325 0.617160
vt 0.187325 0.657706
vt 0.294647 0.657706
vt 0.913307 0.000000
vt 0.805986 0.000000
vt 0.509289 0.724482
vt 0.509289 0.831803
vt 0.187325 0.703671
vt 0.294647 0.703671
vt 0.698665 0.492684
vt 0.805986 0.492684
vt 0.401968 0.731289
vt 0.294647 0.731289
vt 0.294647 0.758402
vt 0.401968 0.758402
vt 0.187325 0.751623
vt 0.294647 0.751623
vt 0.913307 0.453224
vt 0.805986 0.453224
vt 0.401968 0.702376
vt 0.294647 0.702376
vt 0.294647 0.775926
vt 0.187325 0.775926
vt 0.187325 0.800228
vt 0.294647 0.800228
vt 0.805986 0.874428
vt 0.698665 0.874428
vt 0.401968 0.687716
vt 0.294647 0.687716
vt 0.294647 0.673057
vt 0.401968 0.673057
vn 0.0000 -1.0000 0.0000
vn 0.0000 1.0000 0.0000
vn -0.3498 0.0000 0.9368
vn -0.5889 0.0000 0.8082
vn 0.6300 0.0000 -0.7765
vn 0.3713 0.0000 -0.9285
vn -0.7851 0.0000 0.6194
vn 0.8261 0.0000 -0.5635
vn -0.9219 0.0000 0.3873
vn 0.9477 0.0000 -0.3193
vn -0.9832 0.0000 0.1827
vn 0.9897 0.0000 -0.1429
vn 0.9832 0.0000 0.1827
vn 0.9987 0.0000 0.0510
vn -0.9990 0.0000 -0.0455
vn -0.9897 0.0000 -0.1429
vn -0.9987 0.0000 0.0510
vn 0.9990 0.0000 -0.0455
vn 0.9219 0.0000 0.3873
vn 0.0162 0.0000 -0.9998
vn -0.9477 0.0000 -0.3193
vn 0.7851 0.0000 0.6194
vn -0.0162 0.0000 -0.9998
vn -0.8261 0.0000 -0.5635
vn 0.5889 0.0000 0.8082
vn 1.0000 0.0000 0.0000
vn -0.6300 0.0000 -0.7765
vn 0.3498 0.0000 0.9368
vn -1.0000 0.0000 0.0000
vn -0.3713 0.0000 -0.9285
vn 0.1098 0.0000 0.9939
vn -0.1124 0.0000 -0.9937
vn 0.0000 0.0000 1.0000
vn -0.1098 0.0000 0.9939
vn 0.0000 0.0000 -1.0000
vn 0.1124 0.0000 -0.9937
usemtl Material.003
s 1
f 65/1/1 74/2/1 89/3/1 66/4/1
f 77/5/1 10/6/1 24/7/1 92/8/1
f 78/9/1 77/5/1 92/8/1 93/10/1
f 70/11/1 69/12/1 84/13/1 85/14/1
f 79/15/1 78/9/1 93/10/1 94/16/1
f 71/17/1 70/11/1 85/14/1 86/18/1
f 80/19/1 79/15/1 94/16/1 95/20/1
f 72/21/1 71/17/1 86/18/1 87/22/1
f 81/23/1 80/19/1 95/20/1 96/24/1
f 73/25/1 72/21/1 87/22/1 88/26/1
f 82/27/1 97/28/1 84/29/1 69/30/1
f 74/2/1 73/25/1 88/26/1 89/3/1
f 83/31/1 81/23/1 96/24/1 98/32/1
f 83/31/1 98/32/1 103/33/1 105/34/1
f 82/27/1 101/35/1 99/36/1 97/28/1
f 67/37/2 68/38/2 127/39/2 112/40/2
f 115/41/2 130/42/2 53/43/2 39/44/2
f 116/45/2 131/46/2 130/42/2 115/41/2
f 108/47/2 123/48/2 122/49/2 107/50/2
f 117/51/2 132/52/2 131/46/2 116/45/2
f 109/53/2 124/54/2 123/48/2 108/47/2
f 118/55/2 133/56/2 132/52/2 117/51/2
f 110/57/2 125/58/2 124/54/2 109/53/2
f 119/59/2 134/60/2 133/56/2 118/55/2
f 111/61/2 126/62/2 125/58/2 110/57/2
f 120/63/2 107/64/2 122/65/2 135/66/2
f 112/40/2 127/39/2 126/62/2 111/61/2
f 121/67/2 136/68/2 134/60/2 119/59/2
f 121/67/2 143/69/2 141/70/2 136/68/2
f 120/63/2 135/66/2 137/71/2 139/72/2
f 25/73/3 54/74/3 55/75/4 26/76/4
f 12/77/5 41/78/5 40/79/6 11/80/6
f 26/76/4 55/75/4 56/81/7 27/82/7
f 13/83/8 42/84/8 41/85/5 12/86/5
f 27/87/7 56/88/7 57/89/9 28/90/9
f 14/91/10 43/92/10 42/84/8 13/83/8
f 28/90/9 57/89/9 58/93/11 18/94/11
f 4/95/12 44/96/12 43/92/10 14/91/10
f 17/97/13 15/98/14 59/99/14 47/100/13
f 1/101/15 3/102/16 33/103/16 45/104/15
f 18/94/11 58/93/11 60/105/17 16/106/17
f 2/107/18 46/108/18 44/96/12 4/95/12
f 17/109/13 47/110/13 48/111/19 19/112/19
f 100/113/20 102/114/20 140/115/20 138/116/20
f 5/117/21 34/118/21 33/119/16 3/120/16
f 19/112/19 48/111/19 49/121/22 20/122/22
f 104/123/23 142/124/23 144/125/23 106/126/23
f 6/127/24 35/128/24 34/118/21 5/117/21
f 20/129/22 49/130/22 50/131/25 21/132/25
f 30/133/26 64/134/26 46/108/18 2/107/18
f 7/135/27 36/136/27 35/128/24 6/127/24
f 21/132/25 50/131/25 51/137/28 22/138/28
f 16/106/17 60/105/17 63/139/29 32/140/29
f 8/141/30 37/142/30 36/143/27 7/144/27
f 22/138/28 51/137/28 52/145/31 23/146/31
f 29/147/29 1/101/15 45/104/15 62/148/29
f 9/149/32 38/150/32 37/142/30 8/141/30
f 90/151/33 128/152/33 129/153/34 91/154/34
f 15/98/14 31/155/26 61/156/26 59/99/14
f 75/157/35 113/158/35 38/150/32 9/149/32
f 91/154/34 129/153/34 54/74/3 25/73/3
f 11/80/6 40/79/6 114/159/36 76/160/36
f 76/160/36 114/159/36 113/158/35 75/157/35
f 23/146/31 52/145/31 128/152/33 90/151/33
f 39/44/2 53/43/2 68/38/2 67/37/2
f 10/6/1 65/1/1 66/4/1 24/7/1
