# Blender v2.93.0 OBJ File: 'car_merged.blend'
# www.blender.org
mtllib right_wheel.mtl
o right_wheel_Plane.001
v -0.784393 -0.260497 -1.201236
v -0.450068 -0.127127 -1.246149
v -0.784393 -0.290020 -1.252658
v -0.450068 -0.183989 -1.345190
v -0.784393 -0.336973 -1.288867
v -0.450068 -0.274424 -1.414932
v -0.784393 -0.504436 -1.267233
v -0.450068 -0.666711 -1.282829
v -0.450068 -0.696536 -1.172589
v -0.784393 -0.548534 -1.104239
v -0.450068 -0.681904 -1.059326
v -0.784393 -0.472058 -1.016608
v -0.784393 -0.414822 -1.001122
v -0.450068 -0.424367 -0.860717
v -0.784393 -0.356017 -1.008719
v -0.784393 -0.212063 -0.932211
v -0.784393 -0.112495 -1.132887
v -0.784393 -0.183989 -1.345190
v -0.784393 -0.497927 -1.430126
v -0.784393 -0.666711 -1.282829
v -0.784393 -0.681904 -1.059326
v -0.784393 -0.625042 -0.960285
v -0.784393 -0.424367 -0.860717
v -0.784393 -0.180766 -1.041721
v -0.784393 -0.293499 -1.376487
v -0.784393 -0.568749 -1.340928
v -0.735242 -0.180766 -1.041721
v -0.735242 -0.155314 -1.135797
v -0.735242 -0.216325 -1.316971
v -0.735242 -0.293499 -1.376487
v -0.735242 -0.387575 -1.401939
v -0.735242 -0.592706 -0.988504
v -0.735242 -0.515532 -0.928988
v -0.735242 -0.421456 -0.903536
v -0.735242 -0.252900 -1.142431
v -0.735242 -0.260497 -1.201236
v -0.735242 -0.336973 -1.288867
v -0.735242 -0.394209 -1.304353
v -0.735242 -0.453014 -1.296756
v -0.735242 -0.504436 -1.267233
v -0.735242 -0.540645 -1.220280
v -0.735242 -0.556131 -1.163044
v -0.735242 -0.548534 -1.104239
v -0.735242 -0.519012 -1.052817
v -0.735242 -0.472058 -1.016608
v -0.735242 -0.414822 -1.001122
v -0.735242 -0.356017 -1.008719
v -0.784393 -0.142320 -1.022646
v -0.450068 -0.142320 -1.022646
v -0.450068 -0.212063 -0.932211
v -0.450068 -0.112495 -1.132887
v -0.784393 -0.127127 -1.246149
v -0.784393 -0.274424 -1.414932
v -0.784393 -0.384664 -1.444758
v -0.450068 -0.384664 -1.444758
v -0.450068 -0.497927 -1.430126
v -0.784393 -0.596968 -1.373264
v -0.450068 -0.596968 -1.373264
v -0.784393 -0.696536 -1.172589
v -0.450068 -0.625042 -0.960285
v -0.784393 -0.534607 -0.890542
v -0.450068 -0.534607 -0.890542
v -0.784393 -0.311104 -0.875349
v -0.450068 -0.311104 -0.875349
v -0.784393 -0.240282 -0.964547
v -0.784393 -0.155314 -1.135797
v -0.784393 -0.167801 -1.232452
v -0.784393 -0.216325 -1.316971
v -0.784393 -0.387575 -1.401939
v -0.784393 -0.484230 -1.389453
v -0.784393 -0.628265 -1.263754
v -0.784393 -0.653717 -1.169678
v -0.784393 -0.641230 -1.073023
v -0.784393 -0.592706 -0.988504
v -0.784393 -0.515532 -0.928988
v -0.784393 -0.421456 -0.903536
v -0.784393 -0.324801 -0.916023
v -0.784393 -0.304595 -1.038242
v -0.784393 -0.268386 -1.085195
v -0.784393 -0.252900 -1.142431
v -0.784393 -0.394209 -1.304353
v -0.784393 -0.453014 -1.296756
v -0.784393 -0.540645 -1.220280
v -0.784393 -0.556131 -1.163044
v -0.784393 -0.519012 -1.052817
v -0.735242 -0.240282 -0.964547
v -0.735242 -0.167801 -1.232452
v -0.735242 -0.484230 -1.389453
v -0.735242 -0.568749 -1.340928
v -0.735242 -0.628265 -1.263754
v -0.735242 -0.653717 -1.169678
v -0.735242 -0.641230 -1.073023
v -0.735242 -0.324801 -0.916023
v -0.735242 -0.304595 -1.038242
v -0.735242 -0.268386 -1.085195
v -0.735242 -0.290020 -1.252658
v -0.735242 -0.147066 -1.215890
v -0.784393 -0.147066 -1.215890
v -0.735242 -0.139469 -1.157085
v -0.784393 -0.139469 -1.157085
v -0.735242 -0.341363 -0.895288
v -0.784393 -0.341363 -0.895288
v -0.735242 -0.177816 -1.015349
v -0.784393 -0.177816 -1.015349
v -0.784393 -0.214026 -0.968395
v -0.735242 -0.214026 -0.968395
v -0.735242 -0.400168 -0.887691
v -0.784393 -0.400168 -0.887691
v -0.735242 -0.541904 -0.926038
v -0.784393 -0.541904 -0.926038
v -0.735242 -0.588857 -0.962247
v -0.784393 -0.588857 -0.962247
v -0.784393 -0.661965 -1.089585
v -0.735242 -0.661965 -1.089585
v -0.735242 -0.220174 -1.343228
v -0.784393 -0.220174 -1.343228
v -0.735242 -0.267127 -1.379437
v -0.784393 -0.267127 -1.379437
v -0.735242 -0.408863 -1.417784
v -0.784393 -0.408863 -1.417784
v -0.735242 -0.467668 -1.410187
v -0.784393 -0.467668 -1.410187
v -0.735242 -0.595006 -1.337079
v -0.784393 -0.595006 -1.337079
v -0.735242 -0.631215 -1.290126
v -0.784393 -0.631215 -1.290126
v -0.735242 -0.669562 -1.148390
v -0.784393 -0.669562 -1.148390
v -0.450068 -0.142320 -1.022646
v -0.450068 -0.212063 -0.932211
v -0.450068 -0.112495 -1.132887
v -0.784393 -0.274424 -1.414932
v -0.784393 -0.384664 -1.444758
v -0.450068 -0.497927 -1.430126
v -0.450068 -0.384664 -1.444758
v -0.450068 -0.596968 -1.373264
v -0.450068 -0.534607 -0.890542
v -0.450068 -0.625042 -0.960285
v -0.450068 -0.311104 -0.875349
v -0.450068 -0.424367 -0.860717
v -0.784393 -0.155314 -1.135797
v -0.784393 -0.167801 -1.232452
v -0.784393 -0.216325 -1.316971
v -0.784393 -0.387575 -1.401939
v -0.784393 -0.484230 -1.389453
v -0.784393 -0.628265 -1.263754
v -0.784393 -0.653717 -1.169678
v -0.784393 -0.641230 -1.073023
v -0.784393 -0.592706 -0.988504
v -0.784393 -0.515532 -0.928988
v -0.784393 -0.421456 -0.903536
v -0.784393 -0.324801 -0.916023
v -0.784393 -0.240282 -0.964547
v -0.784393 -0.268386 -1.085195
v -0.784393 -0.268386 -1.085195
v -0.784393 -0.252900 -1.142431
v -0.784393 -0.252900 -1.142431
v -0.784393 -0.540645 -1.220280
v -0.784393 -0.540645 -1.220280
v -0.784393 -0.556131 -1.163044
v -0.784393 -0.556131 -1.163044
v -0.735242 -0.568749 -1.340928
v -0.735242 -0.628265 -1.263754
v -0.735242 -0.653717 -1.169678
v -0.735242 -0.641230 -1.073023
v -0.735242 -0.421456 -0.903536
v -0.735242 -0.324801 -0.916023
v -0.735242 -0.304595 -1.038242
v -0.735242 -0.304595 -1.038242
v -0.735242 -0.304595 -1.038242
v -0.735242 -0.268386 -1.085195
v -0.735242 -0.268386 -1.085195
v -0.735242 -0.268386 -1.085195
v -0.735242 -0.290020 -1.252658
v -0.735242 -0.290020 -1.252658
v -0.735242 -0.290020 -1.252658
v -0.784393 -0.290020 -1.252658
v -0.784393 -0.290020 -1.252658
v -0.735242 -0.336973 -1.288867
v -0.735242 -0.336973 -1.288867
v -0.735242 -0.336973 -1.288867
v -0.784393 -0.336973 -1.288867
v -0.784393 -0.336973 -1.288867
v -0.735242 -0.504436 -1.267233
v -0.735242 -0.504436 -1.267233
v -0.735242 -0.504436 -1.267233
v -0.784393 -0.504436 -1.267233
v -0.784393 -0.504436 -1.267233
v -0.450068 -0.183989 -1.345190
v -0.450068 -0.127127 -1.246149
v -0.450068 -0.274424 -1.414932
v -0.450068 -0.696536 -1.172589
v -0.450068 -0.666711 -1.282829
v -0.450068 -0.681904 -1.059326
v -0.784393 -0.681904 -1.059326
v -0.784393 -0.625042 -0.960285
v -0.784393 -0.260497 -1.201236
v -0.784393 -0.260497 -1.201236
v -0.784393 -0.472058 -1.016608
v -0.784393 -0.472058 -1.016608
v -0.784393 -0.414822 -1.001122
v -0.784393 -0.414822 -1.001122
v -0.735242 -0.216325 -1.316971
v -0.735242 -0.293499 -1.376487
v -0.735242 -0.387575 -1.401939
v -0.735242 -0.592706 -0.988504
v -0.735242 -0.515532 -0.928988
v -0.735242 -0.252900 -1.142431
v -0.735242 -0.252900 -1.142431
v -0.735242 -0.252900 -1.142431
v -0.735242 -0.260497 -1.201236
v -0.735242 -0.260497 -1.201236
v -0.735242 -0.260497 -1.201236
v -0.735242 -0.394209 -1.304353
v -0.735242 -0.394209 -1.304353
v -0.735242 -0.394209 -1.304353
v -0.735242 -0.453014 -1.296756
v -0.735242 -0.453014 -1.296756
v -0.735242 -0.453014 -1.296756
v -0.735242 -0.540645 -1.220280
v -0.735242 -0.540645 -1.220280
v -0.735242 -0.540645 -1.220280
v -0.735242 -0.556131 -1.163044
v -0.735242 -0.556131 -1.163044
v -0.735242 -0.556131 -1.163044
v -0.735242 -0.548534 -1.104239
v -0.735242 -0.548534 -1.104239
v -0.735242 -0.548534 -1.104239
v -0.735242 -0.519012 -1.052817
v -0.735242 -0.519012 -1.052817
v -0.735242 -0.519012 -1.052817
v -0.735242 -0.472058 -1.016608
v -0.735242 -0.472058 -1.016608
v -0.735242 -0.472058 -1.016608
v -0.735242 -0.414822 -1.001122
v -0.735242 -0.414822 -1.001122
v -0.735242 -0.414822 -1.001122
v -0.735242 -0.356017 -1.008719
v -0.735242 -0.356017 -1.008719
v -0.735242 -0.356017 -1.008719
v -0.735242 -0.147066 -1.215890
v -0.735242 -0.147066 -1.215890
v -0.784393 -0.147066 -1.215890
v -0.784393 -0.147066 -1.215890
v -0.735242 -0.139469 -1.157085
v -0.735242 -0.139469 -1.157085
v -0.784393 -0.139469 -1.157085
v -0.784393 -0.139469 -1.157085
v -0.735242 -0.341363 -0.895288
v -0.735242 -0.341363 -0.895288
v -0.784393 -0.341363 -0.895288
v -0.784393 -0.341363 -0.895288
v -0.735242 -0.177816 -1.015349
v -0.735242 -0.177816 -1.015349
v -0.784393 -0.177816 -1.015349
v -0.784393 -0.177816 -1.015349
v -0.784393 -0.214026 -0.968395
v -0.784393 -0.214026 -0.968395
v -0.735242 -0.214026 -0.968395
v -0.735242 -0.214026 -0.968395
v -0.735242 -0.400168 -0.887691
v -0.735242 -0.400168 -0.887691
v -0.784393 -0.400168 -0.887691
v -0.784393 -0.400168 -0.887691
v -0.735242 -0.541904 -0.926038
v -0.735242 -0.541904 -0.926038
v -0.784393 -0.541904 -0.926038
v -0.784393 -0.541904 -0.926038
v -0.735242 -0.588857 -0.962247
v -0.735242 -0.588857 -0.962247
v -0.784393 -0.588857 -0.962247
v -0.784393 -0.588857 -0.962247
v -0.784393 -0.661965 -1.089585
v -0.784393 -0.661965 -1.089585
v -0.735242 -0.661965 -1.089585
v -0.735242 -0.661965 -1.089585
v -0.735242 -0.220174 -1.343228
v -0.735242 -0.220174 -1.343228
v -0.784393 -0.220174 -1.343228
v -0.784393 -0.220174 -1.343228
v -0.735242 -0.267127 -1.379437
v -0.735242 -0.267127 -1.379437
v -0.784393 -0.267127 -1.379437
v -0.784393 -0.267127 -1.379437
v -0.735242 -0.408863 -1.417784
v -0.735242 -0.408863 -1.417784
v -0.784393 -0.408863 -1.417784
v -0.784393 -0.408863 -1.417784
v -0.735242 -0.467668 -1.410187
v -0.735242 -0.467668 -1.410187
v -0.784393 -0.467668 -1.410187
v -0.784393 -0.467668 -1.410187
v -0.735242 -0.595006 -1.337079
v -0.735242 -0.595006 -1.337079
v -0.784393 -0.595006 -1.337079
v -0.784393 -0.595006 -1.337079
v -0.735242 -0.631215 -1.290126
v -0.735242 -0.631215 -1.290126
v -0.784393 -0.631215 -1.290126
v -0.784393 -0.631215 -1.290126
v -0.735242 -0.669562 -1.148390
v -0.735242 -0.669562 -1.148390
v -0.784393 -0.669562 -1.148390
v -0.784393 -0.669562 -1.148390
v -0.784393 -0.356017 -1.008719
v -0.784393 -0.356017 -1.008719
v -0.784393 -0.548534 -1.104239
v -0.784393 -0.548534 -1.104239
v -0.784393 -0.212063 -0.932211
v -0.784393 -0.142320 -1.022646
v -0.784393 -0.112495 -1.132887
v -0.784393 -0.127127 -1.246149
v -0.784393 -0.183989 -1.345190
v -0.784393 -0.497927 -1.430126
v -0.784393 -0.596968 -1.373264
v -0.784393 -0.666711 -1.282829
v -0.784393 -0.696536 -1.172589
v -0.784393 -0.534607 -0.890542
v -0.784393 -0.424367 -0.860717
v -0.784393 -0.311104 -0.875349
v -0.784393 -0.180766 -1.041721
v -0.784393 -0.293499 -1.376487
v -0.784393 -0.568749 -1.340928
v -0.784393 -0.394209 -1.304353
v -0.784393 -0.394209 -1.304353
v -0.784393 -0.453014 -1.296756
v -0.784393 -0.453014 -1.296756
v -0.784393 -0.519012 -1.052817
v -0.784393 -0.519012 -1.052817
v -0.784393 -0.304595 -1.038242
v -0.784393 -0.304595 -1.038242
v -0.735242 -0.240282 -0.964547
v -0.735242 -0.180766 -1.041721
v -0.735242 -0.155314 -1.135797
v -0.735242 -0.167801 -1.232452
v -0.735242 -0.484230 -1.389453
vt 0.908601 0.516692
vt 0.981688 0.516692
vt 0.981447 0.493160
vt 0.908360 0.493160
vt 0.980966 0.474622
vt 0.907879 0.474622
vt 0.155862 0.839630
vt 0.082745 0.839619
vt 0.082698 0.858196
vt 0.155815 0.858206
vt 0.082673 0.881747
vt 0.155790 0.881758
vt 0.082673 0.906688
vt 0.155790 0.906699
vt 0.082698 0.929222
vt 0.155815 0.929232
vt 0.082745 0.945917
vt 0.155862 0.945927
vt 0.906124 0.756974
vt 0.906124 0.830082
vt 0.928599 0.829915
vt 0.928599 0.756807
vt 0.953532 0.829893
vt 0.953532 0.756784
vt 0.977128 0.830019
vt 0.977128 0.756910
vt 0.622783 0.973320
vt 0.695479 0.973320
vt 0.697201 0.954203
vt 0.624504 0.954203
vt 0.698008 0.930390
vt 0.625311 0.930390
vt 0.697777 0.905506
vt 0.625081 0.905506
vt 0.696544 0.883341
vt 0.623848 0.883341
vt 0.632341 0.784995
vt 0.622783 0.808070
vt 0.622783 0.833046
vt 0.632341 0.856122
vt 0.650001 0.873783
vt 0.673075 0.883341
vt 0.698051 0.883341
vt 0.721126 0.873783
vt 0.738786 0.856122
vt 0.748344 0.833046
vt 0.748344 0.808070
vt 0.738786 0.784995
vt 0.721126 0.767334
vt 0.698051 0.757776
vt 0.673075 0.757776
vt 0.650001 0.767334
vt 0.908256 0.564194
vt 0.981343 0.564194
vt 0.981651 0.541636
vt 0.908564 0.541636
vt 0.895058 0.342730
vt 0.883089 0.337776
vt 0.870133 0.337784
vt 0.858164 0.342754
vt 0.849004 0.351928
vt 0.844046 0.363911
vt 0.844046 0.376877
vt 0.849004 0.388853
vt 0.858164 0.398015
vt 0.870133 0.402969
vt 0.883089 0.402960
vt 0.895058 0.397991
vt 0.904218 0.388816
vt 0.909176 0.376834
vt 0.909176 0.363868
vt 0.904218 0.351892
vt 0.290562 0.904832
vt 0.269270 0.904829
vt 0.267441 0.914034
vt 0.292391 0.914037
vt 0.310233 0.896677
vt 0.315442 0.904482
vt 0.325288 0.881608
vt 0.333084 0.886824
vt 0.333436 0.861917
vt 0.342632 0.863750
vt 0.333436 0.840603
vt 0.342632 0.838773
vt 0.325288 0.820911
vt 0.333084 0.815697
vt 0.310233 0.805838
vt 0.315442 0.798034
vt 0.290562 0.797679
vt 0.292391 0.788473
vt 0.269271 0.797676
vt 0.267442 0.788470
vt 0.249600 0.805830
vt 0.244391 0.798025
vt 0.234545 0.820899
vt 0.226749 0.815684
vt 0.226397 0.840590
vt 0.217201 0.838758
vt 0.226397 0.861904
vt 0.217201 0.863734
vt 0.234544 0.881597
vt 0.226748 0.886810
vt 0.249600 0.896670
vt 0.244391 0.904473
vt 0.955698 0.418412
vt 0.955698 0.439689
vt 0.966446 0.439699
vt 0.966446 0.418421
vt 0.913218 0.464686
vt 0.913242 0.452458
vt 0.902492 0.452447
vt 0.902469 0.464675
vt 0.969992 0.114635
vt 0.970014 0.133864
vt 0.980763 0.133866
vt 0.980742 0.114636
vt 0.904621 0.319616
vt 0.892652 0.314662
vt 0.969992 0.093351
vt 0.980742 0.093353
vt 0.820958 0.460951
vt 0.820958 0.473901
vt 0.831703 0.473886
vt 0.831703 0.460935
vt 0.919949 0.944500
vt 0.920216 0.954124
vt 0.930961 0.954104
vt 0.930694 0.944480
vt 0.970014 0.073253
vt 0.980763 0.073254
vt 0.957184 0.921888
vt 0.944217 0.921888
vt 0.944217 0.946901
vt 0.957184 0.946901
vt 0.418294 0.959431
vt 0.428981 0.959530
vt 0.428981 0.934608
vt 0.418294 0.934509
vt 0.970054 0.057400
vt 0.980803 0.057402
vt 0.913241 0.445654
vt 0.914288 0.457133
vt 0.924969 0.456755
vt 0.923922 0.445277
vt 0.312694 0.974655
vt 0.313038 0.990476
vt 0.323783 0.990521
vt 0.323439 0.974700
vt 0.377182 0.932455
vt 0.366433 0.932454
vt 0.366433 0.957432
vt 0.377182 0.957433
vt 0.312573 0.954573
vt 0.323318 0.954618
vt 0.874569 0.473306
vt 0.874569 0.460935
vt 0.863888 0.461297
vt 0.863888 0.473668
vt 0.872908 0.925455
vt 0.859955 0.925455
vt 0.855788 0.946436
vt 0.877080 0.946436
vt 0.884876 0.920493
vt 0.896750 0.938279
vt 0.894034 0.911324
vt 0.911803 0.923208
vt 0.898990 0.899343
vt 0.919949 0.903516
vt 0.898988 0.886376
vt 0.919946 0.882202
vt 0.894030 0.874395
vt 0.911796 0.862511
vt 0.884869 0.865226
vt 0.896738 0.847440
vt 0.872900 0.860263
vt 0.877067 0.839283
vt 0.859947 0.860263
vt 0.855775 0.839283
vt 0.847979 0.865226
vt 0.836105 0.847440
vt 0.838821 0.874395
vt 0.821052 0.862511
vt 0.833865 0.886376
vt 0.812907 0.882202
vt 0.833867 0.899343
vt 0.812909 0.903516
vt 0.838825 0.911324
vt 0.821059 0.923208
vt 0.847986 0.920493
vt 0.836117 0.938279
vt 0.970054 0.148111
vt 0.980803 0.148113
vt 0.927306 0.398372
vt 0.932264 0.386390
vt 0.955573 0.459825
vt 0.966321 0.459835
vt 0.955573 0.399232
vt 0.966321 0.399242
vt 0.902460 0.437781
vt 0.902437 0.426082
vt 0.891687 0.426090
vt 0.891710 0.437789
vt 0.976587 0.839409
vt 0.975311 0.855740
vt 0.985998 0.855613
vt 0.987274 0.839283
vt 0.582438 0.957431
vt 0.595405 0.957431
vt 0.595405 0.932418
vt 0.582438 0.932418
vt 0.974863 0.876068
vt 0.985550 0.875941
vt 0.166610 0.947535
vt 0.166610 0.935866
vt 0.155862 0.935786
vt 0.155862 0.947455
vt 0.975311 0.897299
vt 0.985998 0.897172
vt 0.377182 0.957432
vt 0.387932 0.957433
vt 0.387932 0.932455
vt 0.377182 0.932454
vt 0.976587 0.916200
vt 0.987274 0.916074
vt 0.482649 0.946760
vt 0.482649 0.934509
vt 0.471901 0.934566
vt 0.471901 0.946817
vt 0.313038 0.914037
vt 0.312694 0.933287
vt 0.323439 0.933332
vt 0.323783 0.914083
vt 0.543536 0.932418
vt 0.530568 0.932418
vt 0.530568 0.957431
vt 0.543536 0.957431
vt 0.913209 0.435738
vt 0.913242 0.426093
vt 0.902492 0.426082
vt 0.902460 0.435727
vt 0.482649 0.934656
vt 0.482649 0.946369
vt 0.493393 0.946222
vt 0.493393 0.934509
vt 0.461157 0.934509
vt 0.461157 0.946728
vt 0.471901 0.946837
vt 0.471901 0.934619
vt 0.863888 0.473954
vt 0.863888 0.461034
vt 0.853201 0.460935
vt 0.853201 0.473855
vt 0.842451 0.460935
vt 0.842451 0.473884
vt 0.853201 0.473886
vt 0.853201 0.460937
vt 0.902460 0.465054
vt 0.902428 0.456386
vt 0.891679 0.456393
vt 0.891710 0.465061
vt 0.831703 0.460935
vt 0.831703 0.473880
vt 0.842451 0.473890
vt 0.842451 0.460945
vt 0.176535 0.936680
vt 0.166610 0.935786
vt 0.166610 0.946474
vt 0.176535 0.947367
vt 0.595405 0.957431
vt 0.608373 0.957431
vt 0.608373 0.932418
vt 0.595405 0.932418
vt 0.932264 0.354281
vt 0.927306 0.342305
vt 0.439668 0.934608
vt 0.428981 0.934509
vt 0.428981 0.959431
vt 0.439668 0.959530
vt 0.913241 0.445654
vt 0.923922 0.445277
vt 0.924969 0.426082
vt 0.914288 0.426460
vt 0.556503 0.957431
vt 0.569471 0.957431
vt 0.569471 0.932418
vt 0.556503 0.932418
vt 0.860570 0.314684
vt 0.848601 0.319653
vt 0.439668 0.958078
vt 0.450412 0.958187
vt 0.450412 0.934619
vt 0.439668 0.934509
vt 0.923991 0.457165
vt 0.913242 0.457133
vt 0.913242 0.473853
vt 0.923991 0.473885
vt 0.461157 0.934619
vt 0.450412 0.934509
vt 0.450412 0.958078
vt 0.461157 0.958187
vt 0.825916 0.342373
vt 0.820958 0.354355
vt 0.398680 0.932463
vt 0.387932 0.932454
vt 0.387932 0.957424
vt 0.398680 0.957434
vt 0.902492 0.452447
vt 0.913242 0.452458
vt 0.913209 0.435738
vt 0.902460 0.435727
vt 0.820958 0.386463
vt 0.825916 0.398439
vt 0.398680 0.957424
vt 0.409428 0.957434
vt 0.409428 0.932463
vt 0.398680 0.932454
vt 0.911291 0.291658
vt 0.900547 0.291804
vt 0.900547 0.314399
vt 0.911291 0.314252
vt 0.848601 0.421128
vt 0.860570 0.426082
vt 0.902460 0.437781
vt 0.891710 0.437789
vt 0.891679 0.456393
vt 0.902428 0.456386
vt 0.919949 0.944500
vt 0.930694 0.944480
vt 0.930961 0.921887
vt 0.920216 0.921907
vt 0.342632 0.957467
vt 0.355599 0.957467
vt 0.355599 0.932454
vt 0.342632 0.932454
vt 0.582438 0.932418
vt 0.569471 0.932418
vt 0.569471 0.957431
vt 0.582438 0.957431
vt 0.892652 0.426061
vt 0.904621 0.421091
vt 0.921936 0.291658
vt 0.911291 0.292616
vt 0.911291 0.311839
vt 0.921936 0.310881
vt 0.921936 0.310288
vt 0.932685 0.310262
vt 0.932685 0.291658
vt 0.921936 0.291683
vt 0.556503 0.932418
vt 0.543536 0.932418
vt 0.543536 0.957431
vt 0.556503 0.957431
vn 0.0000 0.6575 0.7534
vn 0.0000 0.8958 0.4445
vn 0.0000 0.9977 0.0678
vn 0.0000 0.9477 -0.3191
vn 0.0000 0.7534 -0.6575
vn 0.0000 0.4445 -0.8958
vn -0.0000 0.0678 -0.9977
vn -0.0000 -0.3191 -0.9477
vn -0.0000 -0.6575 -0.7534
vn 0.0000 -0.8958 -0.4445
vn 0.0000 -0.9977 -0.0678
vn 0.0000 -0.9477 0.3191
vn 0.0000 -0.7534 0.6575
vn 0.0000 -0.4445 0.8958
vn -0.0000 -0.0678 0.9977
vn 1.0000 -0.0000 -0.0000
vn -0.0000 0.3191 0.9477
vn -1.0000 -0.0000 0.0000
vn 0.0000 0.8672 -0.4979
vn 0.0000 0.4979 0.8672
vn 0.0000 0.9653 0.2612
vn 0.0000 -0.6107 0.7919
vn 0.0000 -0.2612 0.9653
vn 0.0000 0.6107 -0.7919
vn 0.0000 -0.8672 0.4979
vn 0.0000 0.2612 -0.9653
vn 0.0000 -0.4979 -0.8672
vn 0.0000 -0.9653 -0.2612
vn 0.0000 0.9918 -0.1281
vn 0.0000 0.1281 0.9918
vn 0.0000 0.7919 0.6107
vn 0.0000 -0.1281 -0.9918
vn 0.0000 -0.7919 -0.6107
vn 0.0000 -0.9918 0.1281
usemtl set5
s 1
f 16/1/1 130/2/1 129/3/2 310/4/2
f 310/4/2 129/3/2 131/5/3 17/6/3
f 17/7/3 131/8/3 190/9/4 312/10/4
f 312/10/4 190/9/4 189/11/5 18/12/5
f 18/12/5 189/11/5 191/13/6 132/14/6
f 132/14/6 191/13/6 135/15/7 133/16/7
f 133/16/7 135/15/7 134/17/8 19/18/8
f 19/19/8 134/20/8 136/21/9 315/22/9
f 315/22/9 136/21/9 193/23/10 20/24/10
f 20/24/10 193/23/10 192/25/11 317/26/11
f 317/27/11 192/28/11 194/29/12 21/30/12
f 21/30/12 194/29/12 138/31/13 22/32/13
f 22/32/13 138/31/13 137/33/14 318/34/14
f 318/34/14 137/33/14 14/35/15 23/36/15
f 49/37/16 50/38/16 139/39/16 140/40/16 62/41/16 60/42/16 11/43/16 9/44/16 8/45/16 58/46/16 56/47/16 55/48/16 6/49/16 4/50/16 2/51/16 51/52/16
f 23/53/15 14/54/15 64/55/17 320/56/17
f 320/56/17 64/55/17 130/2/1 16/1/1
f 330/57/18 154/58/18 156/59/18 197/60/18 178/61/18 183/62/18 324/63/18 326/64/18 188/65/18 158/66/18 160/67/18 308/68/18 328/69/18 199/70/18 201/71/18 305/72/18
f 321/73/18 153/74/18 309/75/18 48/76/18
f 141/77/18 321/73/18 48/76/18 311/78/18
f 142/79/18 141/77/18 311/78/18 52/80/18
f 143/81/18 142/79/18 52/80/18 313/82/18
f 25/83/18 143/81/18 313/82/18 53/84/18
f 144/85/18 25/83/18 53/84/18 54/86/18
f 145/87/18 144/85/18 54/86/18 314/88/18
f 26/89/18 145/87/18 314/88/18 57/90/18
f 146/91/18 26/89/18 57/90/18 316/92/18
f 147/93/18 146/91/18 316/92/18 59/94/18
f 148/95/18 147/93/18 59/94/18 195/96/18
f 149/97/18 148/95/18 195/96/18 196/98/18
f 150/99/18 149/97/18 196/98/18 61/100/18
f 151/101/18 150/99/18 61/100/18 319/102/18
f 152/103/18 151/101/18 319/102/18 63/104/18
f 153/74/18 152/103/18 63/104/18 309/75/18
f 65/105/9 24/106/10 333/107/10 332/108/9
f 177/109/19 198/110/19 213/111/19 174/112/19
f 75/113/6 76/114/7 34/115/7 33/116/6
f 154/58/18 330/57/18 258/117/18 256/118/18
f 74/119/5 75/113/6 33/116/6 32/120/5
f 331/121/20 306/122/20 239/123/20 170/124/20
f 157/125/21 155/126/21 173/127/21 209/128/21
f 73/129/4 74/119/5 32/120/5 165/130/4
f 208/131/16 212/132/16 242/133/16 246/134/16
f 78/135/22 169/136/22 259/137/22 257/138/22
f 72/139/3 73/129/4 165/130/4 164/140/3
f 202/141/23 200/142/23 233/143/23 236/144/23
f 71/145/2 72/146/3 164/147/3 163/148/2
f 187/149/24 184/150/24 293/151/24 295/152/24
f 323/153/1 71/145/2 163/148/2 162/154/1
f 329/155/25 10/156/25 226/157/25 230/158/25
f 171/159/18 168/160/18 86/161/18 27/162/18
f 210/163/18 171/159/18 27/162/18 334/164/18
f 211/165/18 210/163/18 334/164/18 335/166/18
f 175/167/18 211/165/18 335/166/18 203/168/18
f 180/169/18 175/167/18 203/168/18 30/170/18
f 214/171/18 180/169/18 30/170/18 205/172/18
f 217/173/18 214/171/18 205/172/18 336/174/18
f 185/175/18 217/173/18 336/174/18 89/176/18
f 220/177/18 185/175/18 89/176/18 90/178/18
f 223/179/18 220/177/18 90/178/18 91/180/18
f 227/181/18 223/179/18 91/180/18 92/182/18
f 229/183/18 227/181/18 92/182/18 206/184/18
f 232/185/18 229/183/18 206/184/18 207/186/18
f 235/187/18 232/185/18 207/186/18 166/188/18
f 238/189/18 235/187/18 166/188/18 167/190/18
f 168/160/18 238/189/18 167/190/18 86/161/18
f 76/114/7 77/191/8 93/192/8 34/115/7
f 199/70/18 328/69/18 272/193/18 268/194/18
f 24/106/10 66/195/11 28/196/11 333/107/10
f 77/197/8 65/105/9 332/108/9 93/198/8
f 325/199/26 182/200/26 179/201/26 216/202/26
f 66/203/11 67/204/12 87/205/12 28/206/11
f 215/207/16 218/208/16 290/209/16 286/210/16
f 67/204/12 68/211/13 29/212/13 87/205/12
f 7/213/27 327/214/27 219/215/27 186/216/27
f 68/211/13 322/217/14 204/218/14 29/212/13
f 172/219/24 79/220/24 255/221/24 253/222/24
f 322/217/14 69/223/15 31/224/15 204/218/14
f 161/225/28 159/226/28 222/227/28 225/228/28
f 69/229/15 70/230/17 88/231/17 31/232/15
f 237/233/16 240/234/16 250/235/16 262/236/16
f 70/230/17 323/153/1 162/154/1 88/231/17
f 243/237/29 247/238/29 245/239/29 241/240/29
f 251/241/30 263/242/30 261/243/30 249/244/30
f 104/245/31 105/246/31 260/247/31 254/248/31
f 267/249/22 271/250/22 269/251/22 265/252/22
f 283/253/24 279/254/24 277/255/24 281/256/24
f 291/257/32 287/258/32 285/259/32 289/260/32
f 299/261/33 296/262/33 294/263/33 297/264/33
f 273/265/34 303/266/34 301/267/34 275/268/34
f 40/269/16 221/270/16 298/271/16 123/272/16
f 305/72/18 201/71/18 264/273/18 252/274/18
f 41/275/22 83/276/22 300/277/22 125/278/22
f 13/279/34 46/280/34 107/281/34 108/282/34
f 224/283/16 228/284/16 276/285/16 302/286/16
f 197/60/18 156/59/18 248/287/18 244/288/18
f 3/289/31 176/290/31 278/291/31 280/292/31
f 84/293/32 42/294/32 127/295/32 304/296/32
f 234/297/31 12/298/31 110/299/31 266/300/31
f 183/62/18 178/61/18 116/301/18 284/302/18
f 85/303/33 231/304/33 270/305/33 112/306/33
f 36/307/32 1/308/32 98/309/32 97/310/32
f 326/64/18 324/63/18 288/311/18 292/312/18
f 181/313/33 5/314/33 118/315/33 282/316/33
f 43/317/30 307/318/30 274/319/30 114/320/30
f 158/66/18 188/65/18 124/321/18 126/322/18
f 81/323/29 38/324/29 119/325/29 120/326/29
f 80/327/30 35/328/30 99/329/30 100/330/30
f 44/331/16 45/332/16 109/333/16 111/334/16
f 96/335/16 37/336/16 117/337/16 115/338/16
f 308/68/18 160/67/18 128/339/18 113/340/18
f 39/341/34 82/342/34 122/343/34 121/344/34
f 47/345/29 15/346/29 102/347/29 101/348/29
f 94/349/16 95/350/16 103/351/16 106/352/16
