# Blender v2.93.0 OBJ File: 'obstacles.blend'
# www.blender.org
mtllib obstacle_cube_mesh.mtl
o cube_Plane
v -1.328093 -1.000000 -6.363632
v 1.328093 -1.000000 -6.363632
v -1.328093 1.000000 -6.363632
v 1.328093 1.000000 -6.363632
v -1.328093 1.000000 -8.285449
v -1.328093 -1.000000 -8.285449
v 1.328093 -1.000000 -8.285449
v 1.328093 1.000000 -8.285449
v -0.399380 1.000000 -5.306745
v -0.399380 -1.000000 -5.306745
v 0.399380 -1.000000 -5.306745
v 0.399380 1.000000 -5.306745
v -0.399380 1.000000 -9.342336
v -0.399380 -1.000000 -9.342336
v 0.399380 -1.000000 -9.342336
v 0.399380 1.000000 -9.342336
vt 0.658190 0.130946
vt 0.543125 0.000000
vt 0.444160 0.000000
vt 0.329095 0.130946
vt 0.329095 0.130946
vt 0.214030 0.000000
vt 0.115065 0.000000
vt 0.000000 0.130946
vt 0.329095 0.369054
vt 0.658190 0.369054
vt 0.905985 0.369054
vt 0.905985 0.130946
vt 0.658190 0.130946
vt 0.658190 0.369054
vt 0.247795 0.869054
vt 0.247795 0.630946
vt 0.000000 0.630946
vt 0.000000 0.869054
vt 0.000000 0.369054
vt 0.329095 0.369054
vt 0.346760 0.747795
vt 0.445724 0.747795
vt 0.445724 0.500000
vt 0.346760 0.500000
vt 0.346760 0.747795
vt 0.346760 0.500000
vt 0.247795 0.500000
vt 0.247795 0.747795
vt 0.905985 0.000000
vt 0.658190 0.000000
vt 0.247795 0.500000
vt 0.000000 0.500000
vt 0.658190 0.500000
vt 0.905985 0.500000
vt 0.000000 1.000000
vt 0.247795 1.000000
vt 0.115065 0.500000
vt 0.214030 0.500000
vt 0.444160 0.500000
vt 0.543125 0.500000
vn 0.0000 -1.0000 -0.0000
vn 0.0000 1.0000 0.0000
vn 1.0000 0.0000 0.0000
vn -1.0000 0.0000 0.0000
vn 0.0000 0.0000 1.0000
vn 0.0000 0.0000 -1.0000
vn 0.7512 0.0000 -0.6601
vn -0.7512 0.0000 -0.6601
vn 0.7512 0.0000 0.6601
vn -0.7512 0.0000 0.6601
usemtl Material.006
s 1
f 2/1/1 11/2/1 10/3/1 1/4/1
f 3/5/2 9/6/2 12/7/2 4/8/2
f 1/4/1 6/9/1 7/10/1 2/1/1
f 2/11/3 7/12/3 8/13/3 4/14/3
f 3/15/4 5/16/4 6/17/4 1/18/4
f 4/8/2 8/19/2 5/20/2 3/5/2
f 10/21/5 11/22/5 12/23/5 9/24/5
f 14/25/6 13/26/6 16/27/6 15/28/6
f 7/12/7 15/29/7 16/30/7 8/13/7
f 5/16/8 13/31/8 14/32/8 6/17/8
f 4/14/9 12/33/9 11/34/9 2/11/9
f 1/18/10 10/35/10 9/36/10 3/15/10
f 8/19/2 16/37/2 13/38/2 5/20/2
f 6/9/1 14/39/1 15/40/1 7/10/1
