# Blender v2.93.0 OBJ File: 'obstacles.blend'
# www.blender.org
mtllib obstacle_ramp_mesh.mtl
o ramp_Cube.003
v -1.713077 -0.155924 -12.508078
v -1.713077 -0.155924 -15.934231
v -1.713077 2.008296 -15.934231
v 1.713077 -0.155924 -12.508078
v 1.713077 -0.155924 -15.934231
v 1.713077 2.008296 -15.934231
vt 0.720911 0.441823
vt 1.000000 0.883645
vt 0.720911 0.883645
vt 0.279089 0.964410
vt 0.000000 0.964410
vt 0.000000 0.522587
vt 0.279089 0.522587
vt 0.720911 0.883645
vt 0.441823 0.883645
vt 0.720911 0.441823
vt 0.441823 0.000000
vt 0.883645 0.000000
vt 0.883645 0.441822
vt 0.441823 0.441822
vt 0.441822 0.522587
vt 0.000000 0.522587
vt 0.000000 0.000000
vt 0.441822 0.000000
vn -1.0000 0.0000 0.0000
vn 0.0000 0.0000 -1.0000
vn 1.0000 0.0000 0.0000
vn 0.0000 -1.0000 0.0000
vn 0.0000 0.8455 0.5341
usemtl Material.002
s off
f 1/1/1 3/2/1 2/3/1
f 2/4/2 3/5/2 6/6/2 5/7/2
f 5/8/3 6/9/3 4/10/3
f 2/11/4 5/12/4 4/13/4 1/14/4
f 6/15/5 3/16/5 1/17/5 4/18/5
